<svg width="24" height="24" viewBox="0 0 24 24" fill="none" xmlns="http://www.w3.org/2000/svg">
<g id="icon-mail">
<path id="Shape" fill-rule="evenodd" clip-rule="evenodd" d="M1.00007 5.98266C0.999912 5.99253 0.999896 6.00239 1.00002 6.01225V18C1.00002 19.6523 2.34774 21 4.00002 21H20C21.6523 21 23 19.6523 23 18V6.01236C23.0002 6.00242 23.0001 5.99247 23 5.98251C22.9905 4.33822 21.6465 3 20 3H4.00002C2.35352 3 1.00947 4.3383 1.00007 5.98266ZM3.1066 5.55395C3.27198 5.22692 3.61206 5 4.00002 5H20C20.388 5 20.7281 5.22692 20.8934 5.55395L12 11.7793L3.1066 5.55395ZM21 7.92066V18C21 18.5477 20.5477 19 20 19H4.00002C3.45231 19 3.00002 18.5477 3.00002 18V7.92066L11.4266 13.8192C11.7709 14.0603 12.2292 14.0603 12.5735 13.8192L21 7.92066Z" fill="#12F7D6"/>
</g>
</svg>
